<svg xmlns="http://www.w3.org/2000/svg" viewBox="0 0 100 100">
  <defs>
    <linearGradient id="rocketGrad" x1="0%" y1="0%" x2="0%" y2="100%">
      <stop offset="0%" style="stop-color:#60a5fa;stop-opacity:1" />
      <stop offset="100%" style="stop-color:#3b82f6;stop-opacity:1" />
    </linearGradient>
    <linearGradient id="flameGrad" x1="0%" y1="0%" x2="0%" y2="100%">
      <stop offset="0%" style="stop-color:#fbbf24;stop-opacity:1" />
      <stop offset="50%" style="stop-color:#f97316;stop-opacity:1" />
      <stop offset="100%" style="stop-color:#ef4444;stop-opacity:1" />
    </linearGradient>
  </defs>
  <path d="M50 5 L40 30 L40 65 L45 70 L45 75 L35 85 L40 85 L45 80 L50 90 L55 80 L60 85 L65 85 L55 75 L55 70 L60 65 L60 30 Z" fill="url(#rocketGrad)"/>
  <ellipse cx="50" cy="35" rx="6" ry="8" fill="#1e3a5f"/>
  <ellipse cx="50" cy="35" rx="4" ry="6" fill="#60a5fa" opacity="0.5"/>
  <path d="M45 80 L50 95 L55 80" fill="url(#flameGrad)"/>
  <path d="M35 45 L40 40 L40 55 L35 60 Z" fill="url(#rocketGrad)"/>
  <path d="M65 45 L60 40 L60 55 L65 60 Z" fill="url(#rocketGrad)"/>
</svg>
